<mxfile host="65bd71144e">
    <diagram id="_BZPKLhokxFC92MRPetP" name="Page-1">
        <mxGraphModel dx="457" dy="402" grid="1" gridSize="10" guides="1" tooltips="1" connect="1" arrows="1" fold="1" page="1" pageScale="1" pageWidth="827" pageHeight="1169" background="#ffffff" math="0" shadow="0">
            <root>
                <mxCell id="0"/>
                <mxCell id="1" parent="0"/>
                <mxCell id="8" value="&lt;span style=&quot;font-family: Helvetica; font-size: 11px; font-style: normal; font-variant-ligatures: normal; font-variant-caps: normal; font-weight: 400; letter-spacing: normal; orphans: 2; text-align: center; text-indent: 0px; text-transform: none; widows: 2; word-spacing: 0px; -webkit-text-stroke-width: 0px; text-decoration-thickness: initial; text-decoration-style: initial; text-decoration-color: initial; float: none; display: inline !important;&quot;&gt;&amp;lt;ThreadName2&amp;gt;Message&lt;/span&gt;" style="edgeStyle=none;html=1;startArrow=none;exitX=0.5;exitY=1;exitDx=0;exitDy=0;labelBackgroundColor=none;" edge="1" parent="1" source="3">
                    <mxGeometry relative="1" as="geometry">
                        <mxPoint x="440" y="245" as="sourcePoint"/>
                        <mxPoint x="440" y="290" as="targetPoint"/>
                    </mxGeometry>
                </mxCell>
                <mxCell id="9" value="&amp;lt;ThreadName1&amp;gt;Message" style="edgeStyle=none;html=1;entryX=0.5;entryY=0;entryDx=0;entryDy=0;labelBackgroundColor=none;" edge="1" parent="1" source="3" target="4">
                    <mxGeometry relative="1" as="geometry"/>
                </mxCell>
                <mxCell id="10" value="&amp;lt;ThreadNameN&amp;gt;Message" style="edgeStyle=none;html=1;startArrow=none;exitX=1;exitY=0.5;exitDx=0;exitDy=0;labelBackgroundColor=none;entryX=0.5;entryY=0;entryDx=0;entryDy=0;" edge="1" parent="1" source="3" target="7">
                    <mxGeometry relative="1" as="geometry"/>
                </mxCell>
                <mxCell id="3" value="ChannelHub" style="ellipse;whiteSpace=wrap;html=1;aspect=fixed;" vertex="1" parent="1">
                    <mxGeometry x="400" y="120" width="80" height="80" as="geometry"/>
                </mxCell>
                <mxCell id="19" style="edgeStyle=none;html=1;exitX=0.75;exitY=1;exitDx=0;exitDy=0;entryX=0.75;entryY=0;entryDx=0;entryDy=0;" edge="1" parent="1" source="4" target="14">
                    <mxGeometry relative="1" as="geometry"/>
                </mxCell>
                <mxCell id="4" value="Channel1&lt;br&gt;[&amp;lt;ThreadName1&amp;gt;Message]" style="rounded=1;whiteSpace=wrap;html=1;" vertex="1" parent="1">
                    <mxGeometry x="166" y="280" width="150" height="60" as="geometry"/>
                </mxCell>
                <mxCell id="21" style="edgeStyle=none;html=1;exitX=0.75;exitY=1;exitDx=0;exitDy=0;entryX=0.75;entryY=0;entryDx=0;entryDy=0;" edge="1" parent="1" source="6" target="15">
                    <mxGeometry relative="1" as="geometry"/>
                </mxCell>
                <mxCell id="6" value="Channel2&lt;br&gt;[&amp;lt;ThreadName2&amp;gt;Message]" style="rounded=1;whiteSpace=wrap;html=1;" vertex="1" parent="1">
                    <mxGeometry x="360" y="280" width="160" height="60" as="geometry"/>
                </mxCell>
                <mxCell id="23" style="edgeStyle=none;html=1;exitX=0.75;exitY=1;exitDx=0;exitDy=0;entryX=0.75;entryY=0;entryDx=0;entryDy=0;" edge="1" parent="1" source="7" target="16">
                    <mxGeometry relative="1" as="geometry"/>
                </mxCell>
                <mxCell id="7" value="ChannelN&lt;br&gt;[&amp;lt;ThreadNameN&amp;gt;Message]" style="rounded=1;whiteSpace=wrap;html=1;" vertex="1" parent="1">
                    <mxGeometry x="564" y="280" width="150" height="60" as="geometry"/>
                </mxCell>
                <mxCell id="18" style="edgeStyle=none;html=1;exitX=0.25;exitY=0;exitDx=0;exitDy=0;entryX=0.25;entryY=1;entryDx=0;entryDy=0;" edge="1" parent="1" source="14" target="4">
                    <mxGeometry relative="1" as="geometry"/>
                </mxCell>
                <mxCell id="25" style="edgeStyle=none;html=1;exitX=0;exitY=0.25;exitDx=0;exitDy=0;entryX=0.5;entryY=0;entryDx=0;entryDy=0;" edge="1" parent="1" source="33" target="3">
                    <mxGeometry relative="1" as="geometry">
                        <Array as="points">
                            <mxPoint x="60" y="608"/>
                            <mxPoint x="60" y="40"/>
                            <mxPoint x="440" y="40"/>
                        </Array>
                    </mxGeometry>
                </mxCell>
                <mxCell id="36" style="edgeStyle=none;html=1;exitX=0.5;exitY=1;exitDx=0;exitDy=0;entryX=0.5;entryY=0;entryDx=0;entryDy=0;" edge="1" parent="1" source="14" target="33">
                    <mxGeometry relative="1" as="geometry"/>
                </mxCell>
                <mxCell id="37" style="edgeStyle=none;html=1;exitX=0.5;exitY=1;exitDx=0;exitDy=0;entryX=0.5;entryY=0;entryDx=0;entryDy=0;" edge="1" parent="1" source="14" target="34">
                    <mxGeometry relative="1" as="geometry"/>
                </mxCell>
                <mxCell id="38" style="edgeStyle=none;html=1;exitX=0.5;exitY=1;exitDx=0;exitDy=0;entryX=0.5;entryY=0;entryDx=0;entryDy=0;" edge="1" parent="1" source="14" target="35">
                    <mxGeometry relative="1" as="geometry"/>
                </mxCell>
                <mxCell id="14" value="Thread1" style="rounded=1;whiteSpace=wrap;html=1;" vertex="1" parent="1">
                    <mxGeometry x="180" y="450" width="120" height="60" as="geometry"/>
                </mxCell>
                <mxCell id="20" style="edgeStyle=none;html=1;exitX=0.25;exitY=0;exitDx=0;exitDy=0;entryX=0.25;entryY=1;entryDx=0;entryDy=0;" edge="1" parent="1" source="15" target="6">
                    <mxGeometry relative="1" as="geometry"/>
                </mxCell>
                <mxCell id="15" value="Thread2" style="rounded=1;whiteSpace=wrap;html=1;" vertex="1" parent="1">
                    <mxGeometry x="380" y="450" width="120" height="60" as="geometry"/>
                </mxCell>
                <mxCell id="22" style="edgeStyle=none;html=1;exitX=0.25;exitY=0;exitDx=0;exitDy=0;entryX=0.25;entryY=1;entryDx=0;entryDy=0;" edge="1" parent="1" source="16" target="7">
                    <mxGeometry relative="1" as="geometry"/>
                </mxCell>
                <mxCell id="27" style="edgeStyle=none;html=1;entryX=0.5;entryY=0;entryDx=0;entryDy=0;" edge="1" parent="1" target="3">
                    <mxGeometry relative="1" as="geometry">
                        <mxPoint x="680" y="620" as="sourcePoint"/>
                        <Array as="points">
                            <mxPoint x="780" y="620"/>
                            <mxPoint x="780" y="40"/>
                            <mxPoint x="440" y="40"/>
                        </Array>
                    </mxGeometry>
                </mxCell>
                <mxCell id="32" value="sendMessage[T]" style="edgeLabel;html=1;align=center;verticalAlign=middle;resizable=0;points=[];" vertex="1" connectable="0" parent="27">
                    <mxGeometry x="0.9426" relative="1" as="geometry">
                        <mxPoint as="offset"/>
                    </mxGeometry>
                </mxCell>
                <mxCell id="16" value="ThreadN" style="rounded=1;whiteSpace=wrap;html=1;" vertex="1" parent="1">
                    <mxGeometry x="580" y="450" width="120" height="60" as="geometry"/>
                </mxCell>
                <mxCell id="29" value="readMsg[&amp;lt;ThreadName1&amp;gt;Message]" style="rounded=0;whiteSpace=wrap;html=1;strokeColor=default;fillColor=default;" vertex="1" parent="1">
                    <mxGeometry x="141" y="378" width="199" height="22" as="geometry"/>
                </mxCell>
                <mxCell id="33" value="handler" style="rounded=1;whiteSpace=wrap;html=1;strokeColor=default;fillColor=default;" vertex="1" parent="1">
                    <mxGeometry x="104" y="600" width="90" height="30" as="geometry"/>
                </mxCell>
                <mxCell id="34" value="handler" style="rounded=1;whiteSpace=wrap;html=1;strokeColor=default;fillColor=default;" vertex="1" parent="1">
                    <mxGeometry x="194" y="600" width="90" height="30" as="geometry"/>
                </mxCell>
                <mxCell id="35" value="handler" style="rounded=1;whiteSpace=wrap;html=1;strokeColor=default;fillColor=default;" vertex="1" parent="1">
                    <mxGeometry x="284" y="600" width="90" height="30" as="geometry"/>
                </mxCell>
                <mxCell id="40" style="edgeStyle=none;html=1;exitX=0.5;exitY=1;exitDx=0;exitDy=0;entryX=0.5;entryY=0;entryDx=0;entryDy=0;" edge="1" parent="1" target="42">
                    <mxGeometry relative="1" as="geometry">
                        <mxPoint x="436" y="510" as="sourcePoint"/>
                    </mxGeometry>
                </mxCell>
                <mxCell id="41" style="edgeStyle=none;html=1;exitX=0.5;exitY=1;exitDx=0;exitDy=0;entryX=0.5;entryY=0;entryDx=0;entryDy=0;" edge="1" parent="1" target="43">
                    <mxGeometry relative="1" as="geometry">
                        <mxPoint x="436" y="510" as="sourcePoint"/>
                    </mxGeometry>
                </mxCell>
                <mxCell id="42" value="handler" style="rounded=1;whiteSpace=wrap;html=1;strokeColor=default;fillColor=default;" vertex="1" parent="1">
                    <mxGeometry x="390" y="600" width="90" height="30" as="geometry"/>
                </mxCell>
                <mxCell id="43" value="handler" style="rounded=1;whiteSpace=wrap;html=1;strokeColor=default;fillColor=default;" vertex="1" parent="1">
                    <mxGeometry x="480" y="600" width="90" height="30" as="geometry"/>
                </mxCell>
                <mxCell id="44" style="edgeStyle=none;html=1;exitX=0.5;exitY=1;exitDx=0;exitDy=0;entryX=0.5;entryY=0;entryDx=0;entryDy=0;" edge="1" parent="1" target="46">
                    <mxGeometry relative="1" as="geometry">
                        <mxPoint x="616" y="510" as="sourcePoint"/>
                    </mxGeometry>
                </mxCell>
                <mxCell id="45" style="edgeStyle=none;html=1;exitX=0.5;exitY=1;exitDx=0;exitDy=0;entryX=0.5;entryY=0;entryDx=0;entryDy=0;" edge="1" parent="1" target="47">
                    <mxGeometry relative="1" as="geometry">
                        <mxPoint x="616" y="510" as="sourcePoint"/>
                    </mxGeometry>
                </mxCell>
                <mxCell id="46" value="handler" style="rounded=1;whiteSpace=wrap;html=1;strokeColor=default;fillColor=default;" vertex="1" parent="1">
                    <mxGeometry x="570" y="600" width="90" height="30" as="geometry"/>
                </mxCell>
                <mxCell id="47" value="handler" style="rounded=1;whiteSpace=wrap;html=1;strokeColor=default;fillColor=default;" vertex="1" parent="1">
                    <mxGeometry x="660" y="600" width="90" height="30" as="geometry"/>
                </mxCell>
                <mxCell id="39" value="routeMessage" style="rounded=0;whiteSpace=wrap;html=1;strokeColor=default;fillColor=default;" vertex="1" parent="1">
                    <mxGeometry x="180" y="540" width="519" height="22" as="geometry"/>
                </mxCell>
                <mxCell id="48" value="readMsg[&amp;lt;ThreadName2&amp;gt;Message]" style="rounded=0;whiteSpace=wrap;html=1;strokeColor=default;fillColor=default;" vertex="1" parent="1">
                    <mxGeometry x="353" y="378" width="199" height="22" as="geometry"/>
                </mxCell>
                <mxCell id="49" value="readMsg[&amp;lt;ThreadNameN&amp;gt;Message]" style="rounded=0;whiteSpace=wrap;html=1;strokeColor=default;fillColor=default;" vertex="1" parent="1">
                    <mxGeometry x="573" y="378" width="199" height="22" as="geometry"/>
                </mxCell>
            </root>
        </mxGraphModel>
    </diagram>
</mxfile>